<svg xmlns="http://www.w3.org/2000/svg" viewBox="0 0 260 260">
	<style type="text/css">
		.st0 {
			fill:url(#SVGID_1_);
		}
		.st1 {
			fill:#FFFFFF;
		}
		@media (prefers-color-scheme: dark) {
			.st0 {
				fill:url(#SVGID_1_);
			}
			.st1 {
				fill:#FFFFFF;
			}
		}
	</style>
	<linearGradient id="SVGID_1_" gradientUnits="userSpaceOnUse" x1="32.5" y1="32.5" x2="227.5" y2="227.5">
		<stop  offset="0" style="stop-color:#FC466B"/>
		<stop  offset="1" style="stop-color:#00DBDE"/>
	</linearGradient>
	<path class="st0" d="M260,130c0,86.7-43.3,130-130,130S0,216.7,0,130S43.3,0,130,0S260,43.3,260,130z"/>
	<path class="st1" d="M222,67.9c-21.3,26.9-55.2,115.7-52.6,137.6c0.4,3.6-1.7,6.5-5.3,6.9l-1,0.1c-6.6,0-17.4-7.1-18.7-17.8
		c-1-8.2,9.4-34.9,18.7-57c-32.1,45.1-52.9,68.5-62,69.6c-0.9,0.1-1.9,0.2-2.8,0.2c-10.2,0-18.1-6.6-19.2-16.1
		c-1.1-9.4,8.1-29,22.2-57.7c8.7-17.7,18.6-37.8,18-43.2c-5.5,1.4-26.4,11.4-47.8,25c-25.6,16.3-36.4,28.3-35.9,33
		c0.6,5.1-2.3,7.3-5,7.6c0,0,0,0-0.1,0c-6.1,0-13.2-6.6-14.2-14.9c-2.9-25.1,75.2-63.3,95.6-65.7c0.8-0.1,1.6-0.1,2.4-0.1
		c11.4,0,22.5,9.3,23.7,19.8c0.9,7.5-7,26.2-19.2,53.9c-6.1,13.9-13.5,30.7-15.6,38.6c10.3-11,42.9-55.1,65.3-85.3
		c13.6-18.4,25.9-34.8,32.9-43.8c1.4-1.8,3.5-3,6-3.3c0,0,0.1,0,0.1,0c6.9,0,14.6,5.2,15.1,9.5C222.9,65.7,222.6,67.2,222,67.9z"/>
</svg>
